<svg width="28" height="30" viewBox="0 0 28 30" fill="none" xmlns="http://www.w3.org/2000/svg">
<g filter="url(#filter0_d_100_43)">
<path d="M19 2H9C6.23858 2 4 4.23858 4 7V17C4 19.7614 6.23858 22 9 22H19C21.7614 22 24 19.7614 24 17V7C24 4.23858 21.7614 2 19 2Z" fill="white"/>
<path d="M17.9997 11.3703C18.1231 12.2025 17.981 13.0525 17.5935 13.7993C17.206 14.5461 16.5929 15.1517 15.8413 15.53C15.0898 15.9082 14.2382 16.0399 13.4075 15.9062C12.5768 15.7726 11.8095 15.3804 11.2145 14.7855C10.6196 14.1905 10.2274 13.4232 10.0938 12.5925C9.96011 11.7619 10.0918 10.9102 10.47 10.1587C10.8483 9.40716 11.4539 8.79404 12.2007 8.40654C12.9475 8.01904 13.7975 7.87689 14.6297 8.0003C15.4786 8.12619 16.2646 8.52176 16.8714 9.12861C17.4782 9.73545 17.8738 10.5214 17.9997 11.3703Z" stroke="#15B2F5" stroke-width="2" stroke-linecap="round" stroke-linejoin="round"/>
<path d="M19.5 6.5H19.51" stroke="#15B2F5" stroke-width="2" stroke-linecap="round" stroke-linejoin="round"/>
</g>
<defs>
<filter id="filter0_d_100_43" x="-2" y="0" width="32" height="32" filterUnits="userSpaceOnUse" color-interpolation-filters="sRGB">
<feFlood flood-opacity="0" result="BackgroundImageFix"/>
<feColorMatrix in="SourceAlpha" type="matrix" values="0 0 0 0 0 0 0 0 0 0 0 0 0 0 0 0 0 0 127 0" result="hardAlpha"/>
<feOffset dy="4"/>
<feGaussianBlur stdDeviation="2"/>
<feComposite in2="hardAlpha" operator="out"/>
<feColorMatrix type="matrix" values="0 0 0 0 0 0 0 0 0 0 0 0 0 0 0 0 0 0 0.25 0"/>
<feBlend mode="normal" in2="BackgroundImageFix" result="effect1_dropShadow_100_43"/>
<feBlend mode="normal" in="SourceGraphic" in2="effect1_dropShadow_100_43" result="shape"/>
</filter>
</defs>
</svg>
